<?xml version="1.0" encoding="utf-8"?>
<!-- Generator: Adobe Illustrator 21.1.0, SVG Export Plug-In . SVG Version: 6.00 Build 0)  -->
<svg version="1.1" id="Layer_1" xmlns="http://www.w3.org/2000/svg" xmlns:xlink="http://www.w3.org/1999/xlink" x="0px" y="0px"
	 viewBox="0 0 418.5 418.8" style="enable-background:new 0 0 418.5 418.8;" xml:space="preserve">
<style type="text/css">
	.st0{fill:#F3BC1A;}
	.st1{fill:#F3BC19;}
</style>
<g>
	<path class="st0" d="M244.6,25.5c-10.8,7.7-20.9,14.9-31,22.2c-23.5,16.9-47,33.9-70.6,50.7c-2.3,1.6-3.3,3.2-3.3,6.1
		c0.1,83.5,0.1,167,0.1,250.5c0,0.6,0.1,1.3,0.1,2.2c2.5-0.2,3.9-1.9,5.6-3.1c26.8-19,53.5-38,80.2-57c1.8-1.3,3.5-2.5,5.4-3.7
		c4.4-2.7,9.2-1.9,11.9,2c2.4,3.6,1.7,8.8-2.1,11.6c-8.2,6.1-16.5,11.9-24.8,17.8c-26.6,18.9-53.2,37.9-79.7,56.8
		c-3.8,2.7-7.3,2.6-11,0C86,353.7,46.7,325.7,7.2,297.9c-5-3.5-7.2-7.7-7.2-13.8c0.1-90.5,0.1-181,0.1-271.5c0-1,0-2,0-3
		C0.8,0.9,7.6-2.5,14.8,2.5c11.8,8.2,23.4,16.6,35,24.9c25.8,18.4,51.6,36.7,77.3,55.1c3,2.1,4.9,2,7.8-0.1
		c37-26.5,74-52.8,111.1-79.2c6-4.3,8.4-4.4,14.4-0.1c39.7,28.4,79.3,56.9,119,85.2c3,2.2,4.3,4.8,4.3,8.4c0,28.5,0,57,0,85.5
		c0,6-3.5,9.9-8.4,9.8c-5.1,0-8.7-4-8.7-10.1c-0.1-25.7,0-51.3,0-77c0-2.6-0.3-4.6-2.8-6.4c-33.1-23.6-66-47.4-99-71.1
		c-0.8-0.5-1.4-1.5-3-1.1c0,1.7,0,3.5,0,5.2c0,49.5,0,99,0,148.5c0,2.8,0.2,5.7-1.7,8.1c-2.4,3-5.5,4.3-9.2,3.4
		c-3.7-0.9-5.5-3.6-6-7.1c-0.3-1.8-0.1-3.7-0.1-5.5c0-49.2,0-98.3,0-147.5C244.6,29.9,244.6,28.1,244.6,25.5z M121.7,357.9
		c0.1-1.7,0.2-2.4,0.2-3c0-83.5,0-167,0.1-250.5c0-3.2-1.4-4.8-3.7-6.4c-32.1-23-64.1-46.1-96.2-69.1c-1.2-0.8-2.4-2.6-3.8-2
		c-1.7,0.8-0.8,3-0.8,4.5c0,82.7,0,165.3-0.1,248c0,3.4,1.1,5.4,3.8,7.3c21.3,14.9,42.4,30,63.6,45
		C96.9,340.3,109,348.9,121.7,357.9z"/>
	<path class="st1" d="M261.7,285.9c-0.2-36.5,29.7-69.9,66-75.5c42.7-6.5,82,22.2,89.7,63.7c3.4,18.7-1.8,35.2-9.8,51.5
		c-12.9,26.3-29.8,50-47.6,73.1c-4,5.1-8.1,10.2-12.1,15.2c-5.2,6.5-9.9,6.7-15.5,0c-14.5-17.4-28-35.6-40.3-54.7
		c-9.6-14.8-18.5-30.1-24.8-46.6C263.9,304,261.5,295.2,261.7,285.9z M340.1,395.5c8.1-9.7,15.5-19.5,22.6-29.6
		c13.1-18.7,25.8-37.6,34.2-59c2.6-6.5,4.8-13.2,4.5-20.3c-1.4-37.7-34.4-64.9-71.8-59c-35,5.5-61.8,45.1-46.1,80.3
		c6.3,14,13.5,27.4,21.9,40.3C316.2,364.6,327.5,380.4,340.1,395.5z"/>
	<path class="st1" d="M340.2,322.8c-20.1,0-35.3-15.3-35.2-35.4c0.1-19.1,15.9-34.7,35.2-34.7c19.6,0,35.1,15.7,35.3,35.7
		C375.6,307.4,359.8,322.8,340.2,322.8z M340.3,304.9c9.6-0.1,17.1-7.6,17.1-17.1c-0.1-9.7-7.9-17.3-17.6-17.1
		c-9.3,0.2-16.7,7.6-16.8,16.9C322.9,297.5,330.5,305,340.3,304.9z"/>
</g>
</svg>
