<?xml version="1.0" encoding="utf-8"?>
<!-- Generator: Adobe Illustrator 21.1.0, SVG Export Plug-In . SVG Version: 6.00 Build 0)  -->
<svg version="1.1" id="Layer_1" xmlns="http://www.w3.org/2000/svg" xmlns:xlink="http://www.w3.org/1999/xlink" x="0px" y="0px"
	 viewBox="0 0 418.6 418.6" style="enable-background:new 0 0 418.6 418.6;" xml:space="preserve">
<style type="text/css">
	.st0{fill:#F3BC19;}
</style>
<g>
	<path class="st0" d="M310.5,329c-6.1,4.3-12.1,7.8-18.8,9.9c-15.1,4.9-29.3,3.1-42.5-5.5c-66.1-42.9-120.3-97.5-163.7-163.3
		c-13.7-20.8-9.1-47.5,5.2-63.2c6.9-7.6,14.4-14.9,22-21.8c13.4-12.1,34.9-11.3,47.7,1.6c8.4,8.4,16.6,16.9,24.8,25.4
		c14.6,15.4,14.7,34.9,0.4,50.6c-5.5,6-5.5,6,0,12.3c18.3,21,37.8,40.8,59,58.9c5.5,4.7,5.4,4.6,10.6-0.3
		c11.2-10.7,24.2-14.1,39.1-9.1c4.3,1.5,8,4.1,11.2,7.3c8.4,8.4,16.4,17.1,25.3,24.9c15.8,14,13.4,37.4,2.5,49.1
		c-6.4,6.9-6.9,12.7-5.4,21.7c4.4,27-4.1,49.9-26.3,66.9c-16.8,12.9-36.3,18.6-56.8,21.6c-28.1,4-56.2,3.6-83.8-3.3
		c-57.1-14.2-100.9-46.8-131.4-97C8,280.3-1.8,241.4,0.3,200.2C3.4,136.7,30.5,84.7,80.2,44.9C117.7,15,160.9,0.1,208.7,0
		c51.2-0.1,96.7,16.6,135.8,49.9c36.3,31,59.8,69.9,69.4,116.7c11.8,57.6,1.4,111.1-31.4,160.1c-3.4,5-8,6.1-12.4,3.1
		c-4.2-2.9-4.9-7.8-1.7-12.7c20.2-31.1,32.2-65.1,32.9-102.3c0.8-44.9-12-85.7-39.5-121.6c-25.4-33.1-57.9-56.4-98.1-67.9
		C206,8.7,151.6,16.9,102.1,50.6c-48.1,32.7-76.6,78.6-83.5,136.6C9,268.8,52.7,347.2,127,382.4c46,21.8,93.8,25.2,142.4,9.7
		c18.8-6,33.7-17.6,39.7-37.7C311.5,346.3,312.7,338,310.5,329z M94.3,143.8c-0.2,4.2,1.4,9.3,4.5,14.1
		C140.4,222.2,193,275.5,257,317.4c16.2,10.6,32.8,8.7,46.4-5.3c5-5.1,9.8-10.4,14.8-15.6c8.5-8.9,8.5-18.4-0.3-27.2
		c-7.7-7.7-15.4-15.3-23.1-22.9c-8.6-8.5-19.4-8.4-28.1,0.3c-2.6,2.6-4.9,5.4-7.4,8.1c-4.4,4.8-9,5.1-14,1.1
		c-30.6-24.4-58.1-51.9-82.9-82.2c-4-4.9-3.7-9.8,0.9-14.2c2.7-2.5,5.5-4.9,8.1-7.4c9-9,9.1-20,0.2-28.8c-7.7-7.7-15.3-15.3-23-23
		c-7.9-8-17.2-8.4-25.6-0.9c-6.2,5.6-12.3,11.3-18.1,17.3C98.3,123.8,94.4,132.3,94.3,143.8z"/>
</g>
</svg>
